<svg xmlns="http://www.w3.org/2000/svg" viewBox="0 0 275.88 275.67"><defs><style>.cls-1{fill:#fff;}.cls-2{fill:#0f3696;}.cls-2,.cls-3,.cls-4,.cls-5{stroke:#000;stroke-miterlimit:10;}.cls-3{fill:#0c2075;}.cls-4{fill:#0d4204;}.cls-5{fill:#146310;}</style></defs><g id="Layer_2" data-name="Layer 2"><g id="Layer_4" data-name="Layer 4"><path class="cls-1" d="M257.33,79.09A133.1,133.1,0,1,1,232.16,44q1.71,1.71,3.33,3.46"/><path d="M253,81.61c23.19,47.71,14.29,106.29-22.44,144.68C195.82,262.63,142,275.22,94.64,258.37,47.16,241.48,13.27,196.2,10.24,146A129.28,129.28,0,0,1,79.52,24C123.59,1.24,179.06,6.64,217.76,37.74A136.5,136.5,0,0,1,232,51c4.41,4.71,11.47-2.37,7.07-7.07C202.13,4.48,144.1-10.32,93,7.43,41.15,25.41,4.35,73.5.35,128.14c-4,54.13,25.65,107.11,73.82,132.14,47.55,24.71,106.44,19.31,148.7-13.6C268,211.49,287,150,269.35,95.52a147,147,0,0,0-7.7-19c-2.82-5.78-11.44-.72-8.64,5Z"/><path class="cls-1" d="M48.88,196.52a106.57,106.57,0,1,1,23.64,25.26c-1-.79-2-1.59-3-2.4"/><path d="M53.2,194c-24.4-37.15-22.55-87,6.13-121.39,25-29.92,65.75-43.28,103.54-33.52,38.49,9.95,67.91,42.24,74.72,81.32,6.73,38.58-10.53,79-43,100.93a102.6,102.6,0,0,1-121.58-5.5c-4.94-4-12.06,3-7.07,7.07,33.88,27.64,80.65,33.8,120.23,14.79,39.21-18.83,64.29-60.68,62.72-104.09A112.55,112.55,0,0,0,179.68,34.2C140.33,18,93.91,26.36,62.45,54.92,22.09,91.56,14.75,153.66,44.56,199c3.52,5.36,12.18.36,8.64-5Z"/><polygon class="cls-2" points="136.88 136.57 121.36 119.24 156.63 103.26 191.9 87.28 172.15 120.58 152.4 153.89 136.88 136.57"/><polygon class="cls-3" points="191.48 88.02 137.06 136.77 152.83 154.37 191.48 88.02"/><polygon class="cls-4" points="137.11 137.23 152.63 154.55 117.36 170.53 82.1 186.52 101.84 153.21 121.59 119.9 137.11 137.23"/><polygon class="cls-5" points="82.52 185.78 136.93 137.03 121.16 119.42 82.52 185.78"/></g></g></svg>